<svg width="547" height="124" viewBox="0 0 547 124" fill="none" xmlns="http://www.w3.org/2000/svg">
<path fill-rule="evenodd" clip-rule="evenodd" d="M62.2294 0.000415268L66.3404 11.1589L67.3284 14.4523C67.9066 16.3797 68.2004 18.3812 68.2004 20.3935C68.2004 22.0841 67.9931 23.7682 67.583 25.4083L66.9323 28.0113C66.5406 29.578 65.8825 31.0658 64.9867 32.4095L64.0551 33.8068C63.1196 35.2101 62.6204 36.8589 62.6204 38.5454C62.6204 39.7024 62.8554 40.8472 63.3111 41.9106L64.4804 44.6389L65.0622 45.8026C65.9111 47.5004 66.965 49.0877 68.2004 50.5289L68.8234 51.2558C69.645 52.2143 70.3459 53.2698 70.9104 54.3989L72.2227 57.0235C72.4316 57.4413 72.5404 57.9021 72.5404 58.3694C72.5404 60.0315 71.193 61.3789 69.5309 61.3789H68.2004L67.073 61.2662C64.0282 60.962 62.1196 64.4736 64.0312 66.8631L64.2037 67.0786C64.7687 67.7849 64.9716 68.7146 64.7522 69.5921L64.7026 69.7902C64.5596 70.362 64.2086 70.8601 63.7181 71.1871L63.5022 71.3311C62.1978 72.2006 62.1978 74.1172 63.5022 74.9867L63.5812 75.0394C64.143 75.414 64.4804 76.0444 64.4804 76.7196V76.8789C64.4804 77.9062 63.6476 78.7389 62.6204 78.7389C61.5931 78.7389 60.7604 79.5717 60.7604 80.5989V85.5589V90.5189C60.7604 91.5462 59.9276 92.3789 58.9004 92.3789L57.3258 92.5891C55.2813 92.8619 53.2136 92.9165 51.1576 92.7518C48.0726 92.5048 45.0468 91.7668 42.1944 90.5658L34.7204 87.4189L28.5158 84.5234C26.5494 83.6058 24.2819 83.5849 22.2989 84.4662C20.7095 85.1726 19.4151 86.4096 18.6372 87.9653L15.5004 94.2389L12.9279 99.8985C4.82288 89.4193 0 76.2729 0 62C0 27.7583 27.7583 0 62 0C62.0765 0 62.1529 0.000138502 62.2294 0.000415268ZM90.7342 7.04623C136.89 56.4259 83.2154 136.923 21.5643 109.001C32.4201 118.349 46.5501 124 62 124C96.2417 124 124 96.2417 124 62C124 38.1279 110.508 17.407 90.7342 7.04623Z" fill="#7277FF"/>
<path d="M218.944 30.6789L184.598 31.1193L185.523 61.8349L208.767 62.3853V66.4587L185.639 66.8991V102.789H175V25.9449H218.944V30.6789Z" fill="#00058A"/>
<path d="M270.801 102.789H261.781C260.046 101.138 259.121 98.7156 258.658 95.633C255.536 101.138 250.101 104 242.469 104C223.156 104 218.068 94.3119 218.068 84.6239C218.068 73.5046 225.932 68.2202 243.047 68.2202C248.713 68.2202 256.23 68.7706 258.89 68.8807C258.89 68.6605 258.89 68.4404 258.89 68.2202C258.89 58.9725 253.57 50.4954 243.047 50.4954C233.795 50.4954 229.285 52.1468 229.285 52.1468L228.129 48.6239C228.129 48.6239 233.564 45.6514 243.047 45.6514C261.896 45.6514 269.066 54.8991 269.066 68.2202C269.066 84.4037 266.175 98.3853 270.801 102.789ZM242.469 99.156C250.91 99.156 258.311 94.3119 258.311 86.9358C258.427 82.8624 258.658 78.2385 258.774 73.1743H243.047C235.646 73.1743 228.939 75.7064 228.939 84.6239C228.939 92.6606 232.061 99.156 242.469 99.156Z" fill="#00058A"/>
<path d="M324.476 99.2661C324.476 99.2661 316.728 104 305.742 104C282.499 104 276.601 90.789 276.601 74.8257C276.601 58.8624 282.614 45.6514 305.742 45.6514C314.994 45.6514 320.545 48.6239 320.545 48.6239L319.388 53.2477C319.388 53.2477 314.994 51.5963 305.742 51.5963C293.484 51.5963 287.24 59.7431 287.24 74.8257C287.24 89.9083 293.484 98.055 305.742 98.055C316.381 98.055 323.32 94.6422 323.32 94.6422L324.476 99.2661Z" fill="#00058A"/>
<path d="M383.72 73.1743H338.851C338.851 73.7248 338.851 74.2752 338.851 74.8257C338.851 89.9083 344.98 99.156 357.238 99.156C368.224 99.156 378.169 94.6422 378.169 94.6422L379.326 99.2661C379.326 99.2661 372.387 104 357.238 104C334.804 104 328.675 90.789 328.675 74.8257C328.675 58.8624 335.035 45.6514 357.238 45.6514C377.36 45.6514 383.72 58.9725 383.72 68.2202V73.1743ZM357.238 50.4954C346.599 50.4954 340.586 57.4312 339.198 68.9908C344.518 68.8807 368.224 68.2202 374.469 68.2202C374.469 58.9725 368.571 50.4954 357.238 50.4954Z" fill="#00058A"/>
<path d="M400.791 97.6147L434.095 98.1651V102.789H390.152V25.9449H400.791V97.6147Z" fill="#00058A"/>
<path d="M485.952 102.789H476.932C475.198 101.138 474.272 98.7156 473.81 95.633C470.688 101.138 465.252 104 457.62 104C438.308 104 433.22 94.3119 433.22 84.6239C433.22 73.5046 441.083 68.2202 458.198 68.2202C463.865 68.2202 471.381 68.7706 474.041 68.8807C474.041 68.6605 474.041 68.4404 474.041 68.2202C474.041 58.9725 468.722 50.4954 458.198 50.4954C448.947 50.4954 444.437 52.1468 444.437 52.1468L443.281 48.6239C443.281 48.6239 448.716 45.6514 458.198 45.6514C477.048 45.6514 484.218 54.8991 484.218 68.2202C484.218 84.4037 481.327 98.3853 485.952 102.789ZM457.62 99.156C466.062 99.156 473.463 94.3119 473.463 86.9358C473.579 82.8624 473.81 78.2385 473.926 73.1743H458.198C450.797 73.1743 444.09 75.7064 444.09 84.6239C444.09 92.6606 447.212 99.156 457.62 99.156Z" fill="#00058A"/>
<path d="M519.362 45.6514C536.708 45.6514 547 51.3761 547 75.2661C547 95.1927 540.408 104 519.362 104C511.498 104 504.675 100.807 501.784 92.3303C500.975 97.2844 499.703 100.807 497.621 102.789H488.601C492.07 99.5963 492.764 84.4037 492.764 68.2202V20H502.825V53.2477C505.485 48.7339 510.342 45.6514 519.362 45.6514ZM519.362 99.156C533.239 99.156 536.245 91.0092 536.245 75.2661C536.245 56.9908 530.232 50.4954 519.362 50.4954C509.185 50.4954 503.75 54.0183 502.825 63.5963C502.825 63.5963 502.825 77.9083 502.709 82.0917C502.825 91.0092 506.757 99.156 519.362 99.156Z" fill="#00058A"/>
</svg>
