<svg width="124" height="124" viewBox="0 0 124 124" fill="none" xmlns="http://www.w3.org/2000/svg">
<path fill-rule="evenodd" clip-rule="evenodd" d="M62.2294 0.000415268L66.3404 11.1589L67.3284 14.4523C67.9066 16.3797 68.2004 18.3812 68.2004 20.3935C68.2004 22.0841 67.9931 23.7682 67.583 25.4083L66.9323 28.0113C66.5406 29.578 65.8825 31.0658 64.9867 32.4095L64.0551 33.8068C63.1196 35.2101 62.6204 36.8589 62.6204 38.5454C62.6204 39.7024 62.8554 40.8472 63.3111 41.9106L64.4804 44.6389L65.0622 45.8026C65.9111 47.5004 66.965 49.0877 68.2004 50.5289L68.8234 51.2558C69.645 52.2143 70.3459 53.2698 70.9104 54.3989L72.2227 57.0235C72.4316 57.4413 72.5404 57.9021 72.5404 58.3694C72.5404 60.0315 71.193 61.3789 69.5309 61.3789H68.2004L67.073 61.2662C64.0282 60.962 62.1196 64.4736 64.0312 66.8631L64.2037 67.0786C64.7687 67.7849 64.9716 68.7146 64.7522 69.5921L64.7026 69.7902C64.5596 70.362 64.2086 70.8601 63.7181 71.1871L63.5022 71.3311C62.1978 72.2006 62.1978 74.1172 63.5022 74.9867L63.5812 75.0394C64.143 75.414 64.4804 76.0444 64.4804 76.7196V76.8789C64.4804 77.9062 63.6476 78.7389 62.6204 78.7389C61.5931 78.7389 60.7604 79.5717 60.7604 80.5989V85.5589V90.5189C60.7604 91.5462 59.9276 92.3789 58.9004 92.3789L57.3258 92.5891C55.2813 92.8619 53.2136 92.9165 51.1576 92.7518C48.0726 92.5048 45.0468 91.7668 42.1944 90.5658L34.7204 87.4189L28.5158 84.5234C26.5494 83.6058 24.2819 83.5849 22.2989 84.4662C20.7095 85.1726 19.4151 86.4096 18.6372 87.9653L15.5004 94.2389L12.9279 99.8985C4.82288 89.4193 0 76.2729 0 62C0 27.7583 27.7583 0 62 0C62.0765 0 62.1529 0.000138502 62.2294 0.000415268ZM90.7342 7.04623C136.89 56.4259 83.2154 136.923 21.5643 109.001C32.4201 118.349 46.5501 124 62 124C96.2417 124 124 96.2417 124 62C124 38.1279 110.508 17.407 90.7342 7.04623Z" fill="white"/>
</svg>
