<svg width="372" height="259" viewBox="0 0 372 259" fill="none" xmlns="http://www.w3.org/2000/svg">
<path fill-rule="evenodd" clip-rule="evenodd" d="M186.229 0.000415268L190.34 11.1589L191.328 14.4523C191.907 16.3797 192.2 18.3812 192.2 20.3935C192.2 22.0841 191.993 23.7682 191.583 25.4083L190.932 28.0113C190.541 29.578 189.882 31.0658 188.987 32.4095L188.055 33.8068C187.12 35.2101 186.62 36.8589 186.62 38.5454C186.62 39.7024 186.855 40.8472 187.311 41.9106L188.48 44.6389L189.062 45.8026C189.911 47.5004 190.965 49.0877 192.2 50.5289L192.823 51.2558C193.645 52.2143 194.346 53.2698 194.91 54.3989L196.223 57.0235C196.432 57.4413 196.54 57.9021 196.54 58.3694C196.54 60.0315 195.193 61.3789 193.531 61.3789H192.2L191.073 61.2662C188.028 60.962 186.12 64.4736 188.031 66.8631L188.204 67.0786C188.769 67.7849 188.972 68.7146 188.752 69.5921L188.703 69.7902C188.56 70.362 188.209 70.8601 187.718 71.1871L187.502 71.3311C186.198 72.2006 186.198 74.1172 187.502 74.9867L187.581 75.0394C188.143 75.414 188.48 76.0444 188.48 76.7196V76.8789C188.48 77.9062 187.648 78.7389 186.62 78.7389C185.593 78.7389 184.76 79.5717 184.76 80.5989V85.5589V90.5189C184.76 91.5462 183.928 92.3789 182.9 92.3789L181.326 92.5891C179.281 92.8619 177.214 92.9165 175.158 92.7518C172.073 92.5048 169.047 91.7668 166.194 90.5658L158.72 87.4189L152.516 84.5234C150.549 83.6058 148.282 83.5849 146.299 84.4662C144.709 85.1726 143.415 86.4096 142.637 87.9653L139.5 94.2389L136.928 99.8985C128.823 89.4193 124 76.2729 124 62C124 27.7583 151.758 0 186 0C186.076 0 186.153 0.000138502 186.229 0.000415268ZM214.734 7.04623C260.89 56.4259 207.215 136.923 145.564 109.001C156.42 118.349 170.55 124 186 124C220.242 124 248 96.2417 248 62C248 38.1279 234.508 17.407 214.734 7.04623Z" fill="white"/>
<path d="M43.9437 185.679L9.59823 186.119L10.5234 216.835L33.7673 217.385V221.459L10.639 221.899V257.789H0V180.945H43.9437V185.679Z" fill="white"/>
<path d="M95.8007 257.789H86.7807C85.0461 256.138 84.1209 253.716 83.6583 250.633C80.536 256.138 75.1009 259 67.4686 259C48.1565 259 43.0683 249.312 43.0683 239.624C43.0683 228.505 50.9319 223.22 68.0468 223.22C73.7132 223.22 81.2299 223.771 83.8896 223.881C83.8896 223.661 83.8896 223.44 83.8896 223.22C83.8896 213.972 78.5701 205.495 68.0468 205.495C58.7955 205.495 54.2855 207.147 54.2855 207.147L53.129 203.624C53.129 203.624 58.5642 200.651 68.0468 200.651C86.8963 200.651 94.0661 209.899 94.0661 223.22C94.0661 239.404 91.175 253.385 95.8007 257.789ZM67.4686 254.156C75.9104 254.156 83.3114 249.312 83.3114 241.936C83.4271 237.862 83.6584 233.239 83.774 228.174H68.0468C60.6457 228.174 53.9385 230.706 53.9385 239.624C53.9385 247.661 57.0608 254.156 67.4686 254.156Z" fill="white"/>
<path d="M149.476 254.266C149.476 254.266 141.728 259 130.742 259C107.499 259 101.601 245.789 101.601 229.826C101.601 213.862 107.614 200.651 130.742 200.651C139.994 200.651 145.545 203.624 145.545 203.624L144.388 208.248C144.388 208.248 139.994 206.596 130.742 206.596C118.484 206.596 112.24 214.743 112.24 229.826C112.24 244.908 118.484 253.055 130.742 253.055C141.381 253.055 148.32 249.642 148.32 249.642L149.476 254.266Z" fill="white"/>
<path d="M208.72 228.174H163.851C163.851 228.725 163.851 229.275 163.851 229.826C163.851 244.908 169.98 254.156 182.238 254.156C193.224 254.156 203.169 249.642 203.169 249.642L204.326 254.266C204.326 254.266 197.387 259 182.238 259C159.804 259 153.675 245.789 153.675 229.826C153.675 213.862 160.035 200.651 182.238 200.651C202.36 200.651 208.72 213.972 208.72 223.22V228.174ZM182.238 205.495C171.599 205.495 165.586 212.431 164.198 223.991C169.518 223.881 193.224 223.22 199.469 223.22C199.469 213.972 193.571 205.495 182.238 205.495Z" fill="white"/>
<path d="M225.791 252.615L259.095 253.165V257.789H215.152V180.945H225.791V252.615Z" fill="white"/>
<path d="M310.952 257.789H301.932C300.198 256.138 299.272 253.716 298.81 250.633C295.688 256.138 290.252 259 282.62 259C263.308 259 258.22 249.312 258.22 239.624C258.22 228.505 266.083 223.22 283.198 223.22C288.865 223.22 296.381 223.771 299.041 223.881C299.041 223.661 299.041 223.44 299.041 223.22C299.041 213.972 293.722 205.495 283.198 205.495C273.947 205.495 269.437 207.147 269.437 207.147L268.281 203.624C268.281 203.624 273.716 200.651 283.198 200.651C302.048 200.651 309.218 209.899 309.218 223.22C309.218 239.404 306.327 253.385 310.952 257.789ZM282.62 254.156C291.062 254.156 298.463 249.312 298.463 241.936C298.579 237.862 298.81 233.239 298.926 228.174H283.198C275.797 228.174 269.09 230.706 269.09 239.624C269.09 247.661 272.212 254.156 282.62 254.156Z" fill="white"/>
<path d="M344.362 200.651C361.708 200.651 372 206.376 372 230.266C372 250.193 365.408 259 344.362 259C336.498 259 329.675 255.807 326.784 247.33C325.975 252.284 324.703 255.807 322.621 257.789H313.601C317.07 254.596 317.764 239.404 317.764 223.22V175H327.825V208.248C330.485 203.734 335.342 200.651 344.362 200.651ZM344.362 254.156C358.239 254.156 361.245 246.009 361.245 230.266C361.245 211.991 355.232 205.495 344.362 205.495C334.185 205.495 328.75 209.018 327.825 218.596C327.825 218.596 327.825 232.908 327.709 237.092C327.825 246.009 331.757 254.156 344.362 254.156Z" fill="white"/>
</svg>
